# xmcd
#
# Track frame offsets: 
#        150
#        23242
#        43403
#        64730
#        83943
#        105586
#        128292
#        148879
#        169334
#        190598
#        207987
#        226593
#        246639
#        265086
#        286125
#
# Disc length: 4040 seconds
#
# Revision: 0
# Processed by: cddbd v1.5.2PL0 Copyright (c) Steve Scherf et al.
# Submitted via: ExactAudioCopy v0.99pb4
#
DISCID=d50fc60f
DTITLE=Black Eyed Peas - The E.N.D. (Deluxe Edition) CD1
DYEAR=2009
DGENRE=Hip-Hop
TTITLE0=Boom Boom Pow
TTITLE1=Rock That  Body
TTITLE2=Meet Me Halfway
TTITLE3=Imma Be
TTITLE4=I Gotta Feeling
TTITLE5=Alive
TTITLE6=Missing You
TTITLE7=Ring-A-Ling
TTITLE8=Party All The Time
TTITLE9=Out Of My Head
TTITLE10=Electric City
TTITLE11=Showdown
TTITLE12=Now Generation
TTITLE13=One Tribe
TTITLE14=Rockin To The Beat
EXTD=
EXTT0=
EXTT1=
EXTT2=
EXTT3=
EXTT4=
EXTT5=
EXTT6=
EXTT7=
EXTT8=
EXTT9=
EXTT10=
EXTT11=
EXTT12=
EXTT13=
EXTT14=
PLAYORDER=
